HIERARCHY
ROOT Hips
{
	OFFSET -0.001795 -0.223333 0.028219
	CHANNELS 6 Xposition Yposition Zposition Zrotation Yrotation Xrotation 
	JOINT LeftUpLeg
	{
		OFFSET 0.069520 -0.091406 -0.006815
		CHANNELS 3 Zrotation Yrotation Xrotation
		JOINT LeftLeg
		{
			OFFSET 0.034277 -0.375199 -0.004496
			CHANNELS 3 Zrotation Yrotation Xrotation
			JOINT LeftFoot
			{
				OFFSET -0.013596 -0.397961 -0.043693
				CHANNELS 3 Zrotation Yrotation Xrotation
				JOINT LeftToe
				{
					OFFSET 0.026358 -0.055791 0.119288
					CHANNELS 3 Zrotation Yrotation Xrotation
					End Site
					{
						OFFSET 0.000000 0.000000 0.000000
					}
				}
			}
		}
	}
	JOINT RightUpLeg
	{
		OFFSET -0.067670 -0.090522 -0.004320
		CHANNELS 3 Zrotation Yrotation Xrotation
		JOINT RightLeg
		{
			OFFSET -0.038290 -0.382569 -0.008850
			CHANNELS 3 Zrotation Yrotation Xrotation
			JOINT RightFoot
			{
				OFFSET 0.015774 -0.398415 -0.042312
				CHANNELS 3 Zrotation Yrotation Xrotation
				JOINT RightToe
				{
					OFFSET -0.025372 -0.048144 0.123348
					CHANNELS 3 Zrotation Yrotation Xrotation
					End Site
					{
						OFFSET 0.000000 0.000000 0.000000
					}
				}
			}
		}
	}
	JOINT Spine
	{
		OFFSET -0.002533 0.108963 -0.026696
		CHANNELS 3 Zrotation Yrotation Xrotation
		JOINT Spine1
		{
			OFFSET 0.005487 0.135180 0.001092
			CHANNELS 3 Zrotation Yrotation Xrotation
			JOINT Spine2
			{
				OFFSET 0.001457 0.052922 0.025425
				CHANNELS 3 Zrotation Yrotation Xrotation
				JOINT Neck
				{
					OFFSET -0.002778 0.213870 -0.042857
					CHANNELS 3 Zrotation Yrotation Xrotation
					JOINT Head
					{
						OFFSET 0.005152 0.064970 0.051349
						CHANNELS 3 Zrotation Yrotation Xrotation
						End Site
						{
							OFFSET 0.000000 0.000000 0.000000
						}
					}
				}
				JOINT LeftShoulder
				{
					OFFSET 0.078845 0.121749 -0.034090
					CHANNELS 3 Zrotation Yrotation Xrotation
					JOINT LeftArm
					{
						OFFSET 0.090977 0.030469 -0.008868
						CHANNELS 3 Zrotation Yrotation Xrotation
						JOINT LeftForeArm
						{
							OFFSET 0.259612 -0.012772 -0.027456
							CHANNELS 3 Zrotation Yrotation Xrotation
							JOINT LeftHand
							{
								OFFSET 0.249234 0.008986 -0.001171
								CHANNELS 3 Zrotation Yrotation Xrotation
								End Site
								{
									OFFSET 0.000000 0.000000 0.000000
								}
							}
						}
					}
				}
				JOINT RightShoulder
				{
					OFFSET -0.081759 0.118833 -0.038615
					CHANNELS 3 Zrotation Yrotation Xrotation
					JOINT RightArm
					{
						OFFSET -0.096012 0.032551 -0.009143
						CHANNELS 3 Zrotation Yrotation Xrotation
						JOINT RightForeArm
						{
							OFFSET -0.253742 -0.013329 -0.021401
							CHANNELS 3 Zrotation Yrotation Xrotation
							JOINT RightHand
							{
								OFFSET -0.255298 0.007772 -0.005559
								CHANNELS 3 Zrotation Yrotation Xrotation
								End Site
								{
									OFFSET 0.000000 0.000000 0.000000
								}
							}
						}
					}
				}
			}
		}
	}
}
MOTION
Frames: 8
Frame Time: 0.05000000
0.071781 1.078582 0.592140 5.690772 -19.566163 -164.412010 15.021701 18.354601 15.474714 -14.895210 9.809492 61.711513 31.135807 48.903838 -41.594748 0.000000 0.000000 0.000000 -35.221505 20.832459 -42.281930 16.209499 2.346098 -6.729644 -16.170989 -5.740567 79.102815 0.000000 0.000000 0.000000 -3.302702 26.263896 -15.906888 8.101240 -3.664282 -78.470946 -34.953888 3.216025 87.318862 -155.490595 -0.600873 -84.741451 0.000000 0.000000 0.000000 23.009389 -1.922250 26.229591 60.387680 -3.616239 4.672866 -3.001043 47.035889 -2.893692 0.000000 0.000000 0.000000 27.209198 37.416422 -77.003094 -127.667003 73.261331 -104.384830 -39.874242 12.170787 9.982876 0.000000 0.000000 0.000000 
0.080073 1.111085 0.600395 4.876117 -20.479027 -165.419963 10.149574 16.444137 15.181527 -21.973079 22.455456 64.819737 13.418446 39.496466 -78.128575 0.000000 0.000000 0.000000 -26.425304 15.861844 -35.346783 17.361951 2.267061 -4.179645 -19.236739 -6.047306 75.799157 0.000000 0.000000 0.000000 0.564526 24.749876 -10.745644 15.909009 10.683570 -107.117782 -34.378752 33.522629 111.868053 -162.205818 -13.850482 -107.278399 0.000000 0.000000 0.000000 47.969547 -3.067099 -2.372415 40.237522 -22.918117 -0.858181 5.276317 50.209343 7.096736 0.000000 0.000000 0.000000 19.142848 31.654506 -76.434749 -105.373719 66.694195 -77.537054 -36.438547 2.330208 7.238483 0.000000 0.000000 0.000000 
0.088452 1.131698 0.609568 1.809358 -23.664582 -160.872640 3.069291 8.059800 7.008646 -39.198672 34.092538 60.063804 10.697386 39.152736 -84.381763 0.000000 0.000000 0.000000 -21.810384 6.641753 -32.022248 17.530153 1.185234 -2.878472 -23.435256 -8.606386 74.331698 0.000000 0.000000 0.000000 2.210298 19.201551 -13.857512 -30.219901 -35.345317 -147.812093 -23.174126 -14.044186 -179.474600 75.487168 -4.143013 -137.759351 0.000000 0.000000 0.000000 37.080252 -2.175063 -8.317694 36.585883 -25.662663 -2.658331 4.634198 49.802232 4.730953 0.000000 0.000000 0.000000 -41.663951 22.812062 -78.911330 -35.668255 35.767245 -38.189027 -40.346415 17.308605 -7.927809 0.000000 0.000000 0.000000 
0.096864 1.144854 0.616732 1.734207 -23.268027 -159.577326 0.386488 5.229197 0.637572 -26.481021 35.620286 72.194257 12.259967 27.542948 -86.303612 0.000000 0.000000 0.000000 -17.203010 4.966724 -27.038081 17.535863 0.626716 0.669910 -68.615059 -2.064451 59.799204 0.000000 0.000000 0.000000 4.342657 22.122414 -14.841863 -164.863669 -28.217828 -51.682086 -129.282559 -43.265149 -68.917197 -146.098360 8.900514 -130.416520 0.000000 0.000000 0.000000 53.177782 -17.884594 -89.306547 0.966315 -21.915779 -28.069152 38.180767 -16.150465 -11.881101 0.000000 0.000000 0.000000 -47.071225 -9.824216 103.278977 -20.460775 -35.565878 -38.904940 48.787971 -35.445085 -10.595313 0.000000 0.000000 0.000000 
0.102413 1.140254 0.620923 1.794994 -20.684255 -157.365047 2.531597 4.093142 -7.347603 -33.262138 32.475794 66.962346 11.625536 30.069154 -82.863384 0.000000 0.000000 0.000000 -12.882327 2.645217 -22.481639 24.009689 -0.685313 6.712730 -64.079918 -69.937165 -14.340423 0.000000 0.000000 0.000000 7.501961 22.515081 -15.577559 79.881137 52.760748 -116.911368 161.053490 69.310509 -49.133677 61.961990 12.183253 -121.648074 0.000000 0.000000 0.000000 33.553629 -9.537942 15.719943 45.854855 -9.926298 3.665318 -33.486237 55.741126 -29.961225 0.000000 0.000000 0.000000 -27.086950 25.435753 -53.839017 -48.494738 34.546478 -26.964790 -43.560252 1.001599 10.860983 0.000000 0.000000 0.000000 
0.104245 1.120414 0.621613 1.079829 -16.406221 -154.922210 5.003333 4.585567 -10.464624 -42.399137 32.160023 59.907172 11.941785 39.314259 -76.586031 0.000000 0.000000 0.000000 -10.738485 -0.736356 -11.858128 67.641613 -9.113497 29.456206 1.214662 -44.463037 -93.828320 0.000000 0.000000 0.000000 8.182463 20.609259 -14.198125 24.738465 40.052829 -167.165411 34.279060 64.568241 -161.168718 -47.558760 4.518721 -131.659978 0.000000 0.000000 0.000000 26.625573 -13.297497 8.448832 45.947062 -14.665720 -1.779151 -11.003063 66.863459 -16.993330 0.000000 0.000000 0.000000 -27.069846 20.671687 -47.723264 -45.952339 36.248550 -24.016508 -45.718537 -5.280523 12.114068 0.000000 0.000000 0.000000 
0.102679 1.076812 0.620249 1.586629 -9.245516 -152.989531 8.128228 5.452465 -11.004510 -54.054467 27.086135 48.696860 13.720203 47.934823 -71.919816 0.000000 0.000000 0.000000 -9.548002 -2.454206 -2.741079 65.048024 -27.046961 61.777022 -2.653853 -39.091723 -87.704181 0.000000 0.000000 0.000000 5.799436 16.366757 -17.981242 169.390255 47.502525 -52.641281 164.014353 26.375556 -49.452547 -152.803382 14.990540 -127.426812 0.000000 0.000000 0.000000 22.913258 -19.076274 -26.024497 31.039160 -32.757732 -2.821921 47.045263 43.925624 27.783228 0.000000 0.000000 0.000000 -25.334838 0.803297 29.678137 -59.219201 -3.140227 -19.754018 -22.738535 -46.482583 1.291758 0.000000 0.000000 0.000000 
0.100856 1.031885 0.617939 3.525539 -5.501822 -149.929830 13.077093 9.101183 -14.066452 -55.911764 23.915112 42.218106 13.994069 44.234100 -73.971530 0.000000 0.000000 0.000000 -4.091544 0.947626 0.228631 46.076336 -20.406383 77.237183 -4.039311 -42.405552 -79.721920 0.000000 0.000000 0.000000 3.892413 18.072256 -28.307256 -179.788575 55.682822 -46.748812 151.567670 26.648386 -53.631661 169.576010 19.736937 -137.751369 0.000000 0.000000 0.000000 10.855833 -23.623402 -10.068637 41.233327 -31.786502 -6.034773 47.314913 47.010365 26.049811 0.000000 0.000000 0.000000 -23.384076 0.375536 32.582740 -62.645079 2.561727 -29.399453 -32.892953 -39.984006 5.180861 0.000000 0.000000 0.000000 
